Coordinates
version=1
nRows=21
nColumns=22
inDegrees=yes

Units are S.I. units (second, meters, Newtons, ...)
If the header above contains a line with 'inDegrees', this indicates whether rotational values are in degrees (yes) or radians (no).

endheader
time	pelvis_tilt	pelvis_list	pelvis_rotation	pelvis_tx	pelvis_ty	pelvis_tz	hip_flexion_r	hip_adduction_r	hip_rotation_r	knee_angle_r	ankle_angle_r	subtalar_angle_r	hip_flexion_l	hip_adduction_l	hip_rotation_l	knee_angle_l	ankle_angle_l	subtalar_angle_l	lumbar_extension	lumbar_bending	lumbar_rotation
      4.06000000	     -3.33075166	     -2.95104946	    -92.81658579	      0.04501572	      0.91200537	      0.86189465	     -3.67360345	      8.60967548	      7.06272689	    -22.33497901	     13.80891795	     -5.53416772	     18.39293179	     -9.23220504	     -8.97216811	     -8.69134873	      1.49044521	      7.98394245	     -7.62412447	      1.10765341	      5.81155523
      4.07000000	     -3.38248096	     -2.93183988	    -93.23462023	      0.04686835	      0.91128805	      0.86878958	     -3.98228452	      8.45402949	      7.24495281	    -22.66101054	     14.07977452	     -5.38844392	     18.40534323	     -9.10281588	     -9.51175708	     -8.59368032	      1.36861101	      8.09664958	     -7.56293894	      1.12556816	      5.82743148
      4.08000000	     -3.43200937	     -2.94328036	    -93.65381672	      0.04870405	      0.91069429	      0.87574844	     -4.31348497	      8.29514758	      7.45841370	    -23.00726279	     14.27667314	     -5.21181205	     18.40619275	     -8.99912195	     -9.99168293	     -8.83096611	      1.26357143	      8.05012980	     -7.52706470	      1.12819530	      5.85715268
      4.09000000	     -3.47763963	     -2.97172134	    -94.07075160	      0.05053176	      0.91021661	      0.88275502	     -4.64065692	      8.13163448	      7.70322535	    -23.39309084	     14.41831239	     -4.95207115	     18.39644111	     -8.91231962	    -10.37006155	     -9.33326159	      1.09701889	      7.67008757	     -7.50036684	      1.11639356	      5.90352938
      4.10000000	     -3.51125694	     -2.98321184	    -94.48005557	      0.05233511	      0.90979040	      0.88980914	     -4.90786451	      7.96279323	      7.96705097	    -23.85417347	     14.51990705	     -4.73107606	     18.41268446	     -8.83368009	    -10.64343136	    -10.05187476	      0.88307279	      7.05445025	     -7.43954416	      1.07942390	      5.93736638
      4.11000000	     -3.51500431	     -2.98252073	    -94.91804537	      0.05405351	      0.90944945	      0.89690862	     -5.10977860	      7.77169928	      8.30430884	    -24.40970485	     14.56107232	     -4.52802661	     18.41840475	     -8.74908572	    -10.86912362	    -10.88392849	      0.55784761	      6.35192472	     -7.34818370	      0.99153903	      6.00521054
      4.12000000	     -3.51577694	     -2.97623469	    -95.31166469	      0.05582954	      0.90919554	      0.90398491	     -5.21791441	      7.58356368	      8.56561294	    -25.10969029	     14.53400283	     -4.22508565	     18.42132228	     -8.64860695	    -10.92099859	    -11.75376621	      0.10389379	      5.30653475	     -7.24691509	      0.89879460	      6.01494561
      4.13000000	     -3.48475325	     -2.95626822	    -95.69182943	      0.05761201	      0.90904817	      0.91107980	     -5.24812274	      7.37035101	      8.83069520	    -25.90620539	     14.41480207	     -3.88303335	     18.43484634	     -8.51964940	    -10.93419756	    -12.64937834	     -0.44628296	      4.28562772	     -7.11939502	      0.76617612	      6.02057205
      4.14000000	     -3.40816264	     -2.91604172	    -96.09263454	      0.05933931	      0.90901821	      0.91816016	     -5.15095482	      7.12233878	      9.11258319	    -26.87549875	     14.17895181	     -3.48406700	     18.43374211	     -8.35742768	    -10.94191806	    -13.48576610	     -1.07752564	      3.34044813	     -6.95635193	      0.57426261	      6.03474694
      4.15000000	     -3.31513423	     -2.87256311	    -96.45090280	      0.06110548	      0.90912935	      0.92524396	     -4.97220713	      6.86599895	      9.33053669	    -27.95531778	     13.79211093	     -2.95882249	     18.46097952	     -8.18482540	    -10.94418067	    -14.35113643	     -1.69424717	      2.43233023	     -6.78035870	      0.36158512	      6.00618704
      4.16000000	     -3.20526306	     -2.83183284	    -96.78647356	      0.06290029	      0.90939934	      0.93233189	     -4.70928548	      6.59595594	      9.49108092	    -29.15614705	     13.22376774	     -2.31512438	     18.49402158	     -8.00933351	    -10.97854220	    -15.22706977	     -2.23047147	      1.67463194	     -6.59961860	      0.13392835	      5.94488065
      4.17000000	     -3.08259104	     -2.79478475	    -97.12070525	      0.06467598	      0.90984133	      0.93941794	     -4.35404514	      6.31527288	      9.60662620	    -30.49176200	     12.46855407	     -1.58489552	     18.49870566	     -7.83923923	    -11.04881272	    -16.06096790	     -2.67972387	      1.12530364	     -6.41329421	     -0.10677967	      5.87928531
      4.18000000	     -2.97834970	     -2.77649662	    -97.41156600	      0.06650405	      0.91045551	      0.94651926	     -3.94806860	      6.04489995	      9.61966182	    -31.90564615	     11.47014896	     -0.69365805	     18.50074317	     -7.69895006	    -11.15236720	    -16.93675722	     -2.94534925	      0.71540317	     -6.24373445	     -0.31975569	      5.76342684
      4.19000000	     -2.89546890	     -2.78761959	    -97.67603120	      0.06835294	      0.91124576	      0.95361495	     -3.49600266	      5.77924293	      9.53468123	    -33.40216351	     10.24506633	      0.31197117	     18.46281379	     -7.58706057	    -11.28295671	    -17.81254688	     -3.04582995	      0.45672123	     -6.10483661	     -0.50384733	      5.61771739
      4.20000000	     -2.84363900	     -2.82869790	    -97.91171167	      0.07022176	      0.91218051	      0.96068203	     -2.99321337	      5.52162129	      9.34083380	    -34.98419434	      8.82706241	      1.45229269	     18.37629244	     -7.50918092	    -11.46509332	    -18.67186526	     -2.98449437	      0.29773822	     -6.00216846	     -0.64700826	      5.40919800
      4.21000000	     -2.80819584	     -2.89917362	    -98.14960051	      0.07207197	      0.91326267	      0.96767642	     -2.43553177	      5.25606889	      9.09920981	    -36.64126701	      7.16816485	      2.57505837	     18.20876592	     -7.43924947	    -11.64966982	    -19.45169654	     -2.83956277	      0.20263327	     -5.93701998	     -0.76901843	      5.21449058
      4.22000000	     -2.79647207	     -2.99215411	    -98.38837568	      0.07390529	      0.91444059	      0.97455010	     -1.80589344	      4.98745447	      8.80580423	    -38.38147869	      5.32927910	      3.66697759	     17.96936678	     -7.38287899	    -11.86254395	    -20.14766287	     -2.60599136	      0.11739501	     -5.90831174	     -0.85753906	      5.00804775
      4.23000000	     -2.80050331	     -3.09602885	    -98.63522260	      0.07569663	      0.91565933	      0.98124103	     -1.08788758	      4.71712114	      8.50100867	    -40.20155377	      3.36479187	      4.67459613	     17.67471453	     -7.33114971	    -12.10029195	    -20.75917968	     -2.30251372	      0.01435257	     -5.90971467	     -0.92347528	      4.79885259
      4.24000000	     -2.82527400	     -3.19925891	    -98.89950350	      0.07742672	      0.91686901	      0.98770167	     -0.26312102	      4.44922118	      8.18868570	    -42.10506664	      1.36358202	      5.53462036	     17.32663791	     -7.28978525	    -12.36893799	    -21.25864635	     -1.94853393	     -0.11799112	     -5.93342780	     -0.95885381	      4.60322277
      4.25000000	     -2.86175660	     -3.29374383	    -99.18478395	      0.07908297	      0.91802663	      0.99389019	      0.67164987	      4.18200479	      7.89747303	    -44.07534995	     -0.57910399	      6.21438329	     16.93936095	     -7.25019524	    -12.66864683	    -21.64796652	     -1.56094610	     -0.27807155	     -5.97498449	     -0.97390093	      4.42220751
      4.26000000	     -2.90243895	     -3.37394460	    -99.49002478	      0.08065068	      0.91909335	      0.99978251	      1.71032015	      3.91633947	      7.64544118	    -46.08490022	     -2.35248368	      6.73796361	     16.52398175	     -7.20441976	    -12.98557553	    -21.92953355	     -1.14007136	     -0.46680317	     -6.02795850	     -0.97918403	      4.25757897
